Format : AVI
Format/Info : Audio Video Interleave
File size : 1.00 GiB
Duration : 1h 55mn
Overall bit rate : 1 246 Kbps
Writing library : VirtualDub build 32839/release

Video
ID : 0
Format : MPEG-4 Visual
Format profile : Advanced Simple@L5
Format settings, BVOP : Yes
Format settings, QPel : No
Format settings, GMC : No warppoints
Format settings, Matrix : Custom
Codec ID : XVID
Codec ID/Hint : XviD
Duration : 1h 55mn
Bit rate : 944 Kbps
Width : 692 pixels
Height : 294 pixels
Display aspect ratio : 2.35:1
Frame rate : 23.976 fps
Color space : YUV
Chroma subsampling : 4:2:0
Bit depth : 8 bits
Scan type : Progressive
Bits/(Pixel*Frame) : 0.193
Stream size : 777 MiB (76%)
Writing library : XviD 1.2.1 (UTC 2008-12-04)

Audio
ID : 1
Format : MPEG Audio
Format version : Version 1
Format profile : Layer 3
Codec ID : 55
Codec ID/Hint : MP3
Duration : 1h 45mn
Bit rate mode : Constant
Bit rate : 320 Kbps
Channel(s) : 2 channels
Sampling rate : 48.0 KHz
Video delay : 1s 600ms
Stream size : 241 MiB (24%)
Alignment : Split accross interleaves
Interleave, duration : 46 ms (1.09 video frame)
Interleave, preload duration : 500 ms
Writing library : LAME3.98.4

 
http://www.imdb.com/title/tt1228987/

Users: 7.4/10 (6,864 votes) 145 reviews | Critics: 220 reviews Metascore: 79/100 (based on 35 reviews from Metacritic.com)

A bullied young boy befriends a young female vampire who lives in secrecy with her guardian.
Director:
Matt Reeves
Writers:
Matt Reeves (screenplay), John Ajvide Lindqvist (screenplay), and 1 more credit »
Stars:
Kodi Smit-McPhee, Chloe Moretz and Richard Jenkins
